<?xml version="1.0" standalone="no"?>
<!DOCTYPE svg PUBLIC "-//W3C//DTD SVG 20010904//EN"
 "http://www.w3.org/TR/2001/REC-SVG-20010904/DTD/svg10.dtd">
<svg version="1.0" xmlns="http://www.w3.org/2000/svg"
 width="689.000000pt" height="614.000000pt" viewBox="0 0 689.000000 614.000000"
 preserveAspectRatio="xMidYMid meet">

<g transform="translate(0.000000,614.000000) scale(0.100000,-0.100000)"
fill="#000000" stroke="none">
<path d="M3151 5273 c-55 -123 -593 -1325 -794 -1773 -82 -184 -175 -393 -207
-465 -32 -71 -103 -229 -158 -350 -115 -253 -376 -831 -547 -1210 -65 -143
-151 -334 -192 -425 -41 -91 -85 -189 -98 -217 l-24 -53 228 0 228 0 56 128
c31 70 173 388 315 707 l258 580 1038 3 c571 1 1036 6 1034 10 -2 5 -39 88
-82 185 l-79 177 -872 2 -873 3 73 165 c39 91 114 260 165 375 51 116 116 264
145 330 289 666 560 1285 570 1305 l13 24 16 -39 c34 -82 80 -190 240 -560
301 -695 338 -780 350 -791 10 -10 96 -34 389 -108 51 -13 86 -18 83 -12 -2 6
-88 200 -191 431 -103 231 -209 470 -235 530 -27 61 -92 207 -145 325 -53 118
-128 285 -165 370 -38 85 -98 220 -134 300 l-65 145 -148 3 -149 2 -43 -97z"/>
<path d="M4220 4645 c-8 -2 -61 -9 -118 -15 -69 -8 -102 -16 -99 -24 3 -6 35
-79 72 -162 l67 -151 181 5 c354 9 607 -59 841 -226 80 -58 220 -197 272 -271
16 -22 31 -41 34 -41 3 0 69 48 148 106 l143 106 -20 32 c-46 71 -186 229
-253 284 -316 257 -634 363 -1083 361 -93 -1 -177 -3 -185 -4z"/>
<path d="M3319 4273 c-172 -180 -251 -395 -235 -633 14 -194 71 -330 192 -459
90 -95 173 -153 326 -225 155 -74 306 -120 708 -220 379 -94 563 -152 715
-226 287 -141 425 -341 425 -614 0 -102 -19 -193 -56 -277 l-26 -56 52 -114
c28 -63 66 -145 83 -184 17 -38 32 -72 34 -74 7 -9 65 56 112 123 91 133 146
270 171 428 16 96 8 304 -15 408 -69 312 -301 562 -673 726 -162 71 -315 117
-666 204 -405 100 -544 140 -648 187 -175 79 -275 162 -326 271 -24 51 -27 68
-27 172 0 109 2 119 33 185 l33 70 -66 140 c-36 77 -73 157 -83 178 l-17 38
-46 -48z"/>
<path d="M4419 2318 c60 -134 143 -324 186 -423 42 -99 116 -265 162 -370 47
-104 123 -275 168 -380 45 -104 101 -229 123 -277 l41 -88 220 0 c122 0 221 2
221 4 0 8 -36 88 -146 328 -30 65 -81 177 -113 250 -32 73 -103 230 -156 348
-54 118 -126 278 -160 355 -35 77 -86 189 -113 250 l-50 109 -78 29 c-83 30
-367 107 -396 107 -12 0 8 -54 91 -242z"/>
<path d="M3047 1709 l-148 -100 17 -27 c217 -342 527 -581 917 -708 232 -75
418 -100 681 -91 153 5 341 28 372 46 8 4 -12 59 -60 169 l-71 164 -35 -6
c-81 -14 -379 -18 -465 -7 -405 54 -760 259 -985 570 -36 49 -67 90 -70 90 -3
0 -72 -45 -153 -100z"/>
</g>
</svg>
